<?xml version="1.0" standalone="no"?>
<!DOCTYPE svg PUBLIC "-//W3C//DTD SVG 20010904//EN"
 "http://www.w3.org/TR/2001/REC-SVG-20010904/DTD/svg10.dtd">
<svg version="1.0" xmlns="http://www.w3.org/2000/svg"
 width="1024.000000pt" height="1024.000000pt" viewBox="0 0 1024.000000 1024.000000"
 preserveAspectRatio="xMidYMid meet">
<metadata>
Created by potrace 1.11, written by Peter Selinger 2001-2013
</metadata>
<g transform="translate(0.000000,1024.000000) scale(0.100000,-0.100000)"
fill="#000000" stroke="none">
<path d="M0 5120 l0 -5120 5120 0 5120 0 0 5120 0 5120 -5120 0 -5120 0 0
-5120z m4096 3264 c255 -6 271 -7 267 -24 -6 -24 -4 -26 278 -126 134 -48 246
-88 248 -90 2 -2 -9 -14 -25 -27 -34 -30 -28 -52 22 -73 46 -19 93 -12 132 21
l29 24 204 -73 c194 -69 207 -73 260 -66 63 9 114 32 128 58 9 17 33 16 483
-35 260 -29 485 -53 501 -53 l27 0 0 145 c0 144 0 145 -22 145 -13 0 -236 -18
-496 -41 l-472 -42 -28 26 c-77 74 -206 75 -279 2 -18 -18 -33 -40 -33 -49 0
-11 -9 -16 -32 -16 -45 -1 -778 261 -778 277 0 16 -138 16 1439 -2 1120 -13
1298 -17 1318 -30 24 -16 31 -49 12 -60 -7 -5 -10 -87 -9 -243 1 -131 -2 -366
-6 -524 l-7 -287 -26 -3 c-22 -3 -36 -26 -123 -213 -55 -115 -101 -211 -103
-213 -2 -2 -14 5 -26 17 -29 27 -43 26 -69 -1 -30 -32 -26 -83 9 -118 l28 -29
-73 -157 c-64 -135 -74 -165 -74 -212 0 -50 3 -58 39 -94 l40 -39 -58 -392
c-32 -216 -56 -395 -54 -399 2 -5 74 -8 160 -8 l155 0 -5 33 c-3 17 -25 197
-48 398 l-42 366 38 35 c35 32 39 41 42 94 5 74 -19 118 -77 142 -32 14 -40
22 -40 44 0 39 274 622 294 626 14 3 15 -24 10 -295 -12 -643 -22 -1438 -17
-1445 2 -5 22 -8 44 -8 37 0 39 -2 39 -31 0 -41 -13 -63 -55 -89 l-35 -22 0
-149 0 -149 40 -26 c37 -25 40 -30 40 -72 l0 -45 -337 6 c-186 4 -413 7 -505
7 l-168 0 0 25 c0 23 -17 34 -177 111 -98 47 -189 90 -202 95 l-24 10 22 22
c27 30 27 52 -1 71 -33 23 -72 19 -107 -10 l-31 -26 -146 71 c-180 87 -220 90
-283 21 l-27 -30 -574 85 c-316 47 -587 88 -602 91 l-28 6 0 -211 0 -211 23 0
c12 0 282 31 601 69 l578 69 38 -39 c33 -35 42 -39 84 -39 60 0 102 24 124 72
9 20 26 39 36 42 26 7 580 -257 584 -278 3 -12 -4 -14 -30 -11 -18 2 -467 9
-998 15 -531 6 -982 13 -1002 15 l-38 5 0 -340 0 -340 -50 0 -50 0 0 -110 0
-110 50 0 50 0 0 -1040 0 -1040 -74 0 c-41 0 -85 4 -98 9 -15 6 -95 114 -226
310 -112 165 -205 301 -207 301 -2 0 -90 -133 -196 -296 -106 -162 -202 -302
-213 -310 -14 -9 -48 -14 -103 -14 l-83 0 0 1041 0 1041 33 -5 c17 -2 41 -1
52 3 15 6 72 120 210 419 l189 412 19 -30 c26 -42 81 -75 112 -67 14 4 39 25
55 48 57 78 35 178 -50 236 -19 13 -34 29 -32 35 2 7 66 149 143 316 l139 304
-9 73 c-11 89 -43 149 -102 193 -23 17 -46 32 -50 33 -4 2 49 431 119 954
l128 951 -96 7 c-52 3 -211 6 -352 6 -231 0 -258 -2 -258 -16 0 -9 57 -440
126 -958 118 -883 125 -941 108 -951 -190 -109 -191 -375 -2 -469 29 -14 62
-26 74 -26 18 0 22 -7 27 -55 6 -55 5 -55 -256 -625 l-262 -570 -32 0 -33 0 0
2070 c0 2244 -3 2108 51 2166 20 22 21 22 437 18 229 -3 539 -7 688 -10z
m-543 -3009 c-3 -9 -8 -14 -10 -11 -3 3 -2 9 2 15 9 16 15 13 8 -4z"/>
<path d="M4356 7834 c-3 -9 -4 -20 0 -25 3 -5 -46 -9 -115 -9 l-121 0 0 -1210
c0 -1171 1 -1210 18 -1201 12 7 330 5 928 -4 500 -8 957 -15 1017 -15 l107 0
0 -25 c0 -24 3 -25 55 -25 54 0 60 4 56 38 -2 11 27 12 152 6 l154 -7 6 314
c4 173 10 567 13 877 l7 562 29 0 c29 0 29 0 26 58 -3 50 -6 57 -25 60 l-23 3
0 269 0 268 -147 6 c-82 3 -488 8 -903 11 -415 3 -830 8 -922 11 l-168 6 0 24
c0 23 -3 24 -69 24 -54 0 -70 -3 -75 -16z"/>
<path d="M3510 3895 c0 -9 -42 -60 -93 -113 -149 -154 -206 -256 -207 -362 0
-96 79 -198 243 -314 l68 -48 57 37 c155 103 246 200 259 277 7 47 -26 157
-68 223 -17 28 -76 94 -130 147 -70 68 -101 106 -105 128 -7 33 -24 51 -24 25z"/>
</g>
</svg>
