<?xml version="1.0" standalone="no"?>
<!DOCTYPE svg PUBLIC "-//W3C//DTD SVG 20010904//EN"
 "http://www.w3.org/TR/2001/REC-SVG-20010904/DTD/svg10.dtd">
<svg version="1.0" xmlns="http://www.w3.org/2000/svg"
 width="293.000000pt" height="293.000000pt" viewBox="0 0 293.000000 293.000000"
 preserveAspectRatio="xMidYMid meet">
<metadata>
Created by potrace 1.11, written by Peter Selinger 2001-2013
</metadata>
<g transform="translate(0.000000,293.000000) scale(0.100000,-0.100000)"
fill="#000000" stroke="none">
<path d="M0 1470 l0 -1320 1465 0 1465 0 0 1320 0 1320 -1465 0 -1465 0 0
-1320z m796 1275 c29 -44 -1 -104 -53 -105 -51 0 -84 78 -47 114 25 26 81 20
100 -9z m1804 -455 c12 -12 20 -33 20 -55 0 -45 -29 -75 -73 -75 -52 0 -72 21
-72 75 0 35 5 50 19 61 29 21 82 18 106 -6z m-841 -504 c144 -247 260 -450
259 -451 -34 -26 -524 -318 -533 -318 -9 0 -499 293 -533 318 -2 2 320 560
475 823 31 52 59 90 63 85 5 -4 126 -210 269 -457z m-536 -718 c137 -83 255
-151 262 -151 7 0 126 68 264 152 139 85 254 152 256 149 6 -5 -512 -753 -521
-752 -6 1 -523 742 -524 752 0 8 39 -14 263 -150z"/>
</g>
</svg>
